# xmcd
#
# Track frame offsets:
# 150
# 14765
# 30532
# 42052
# 58167
# 69962
# 82670
# 98017
# 110202
# 119515
# 132450
# 142982
#
# Disc length: 2072 seconds
#
# Revision: 2
# Processed by: cddbd v1.5.2PL0 Copyright (c) Steve Scherf et al.
# Submitted via: CoinsHifi v1.9e contact@coinshifi.com
#
DISCID=a108160c
DTITLE=inconnu - divers
DYEAR=1960
DGENRE=Bachata
TTITLE0=ababa
TTITLE1=bvbvb
TTITLE2=bnbnb
TTITLE3=opopo
TTITLE4=opopo
TTITLE5=klko
TTITLE6=ytuyuy
TTITLE7=yuyuyuy
TTITLE8=zezrez
TTITLE9=uoiuoiuo
TTITLE10=vgfvtyut
TTITLE11=opoiu
EXTD=
EXTT0=
EXTT1=Remix
EXTT2=Remix
EXTT3=Remix
EXTT4=Remix
EXTT5=Remix
EXTT6=Remix
EXTT7=Remix
EXTT8=Remix
EXTT9=Remix
EXTT10=Remix
EXTT11=Remix
PLAYORDER=
